# Blender 4.5.3 LTS
# www.blender.org
mtllib Untitled.mtl
o Cube
v 100.000000 1.000000 0.000000
v 100.000000 -1.000000 0.000000
v 100.000000 1.000000 100.000000
v 100.000000 -1.000000 100.000000
v 0.000000 1.000000 0.000000
v 0.000000 -1.000000 0.000000
v 0.000000 1.000000 100.000000
v 0.000000 -1.000000 100.000000
v 51.530708 10.000000 46.304489
v 51.530708 4.000000 46.304489
v 50.780342 10.000000 46.076859
v 50.780342 4.000000 46.076859
v 49.999977 10.000000 46.000000
v 49.999977 4.000000 46.000000
v 52.222252 4.000000 46.674118
v 52.222252 10.000000 46.674118
v 52.828407 4.000000 47.171570
v 52.828407 10.000000 47.171570
v 53.325859 4.000000 47.777725
v 53.325859 10.000000 47.777725
v 53.695488 4.000000 48.469269
v 53.695488 10.000000 48.469269
v 53.923119 4.000000 49.219635
v 53.923119 10.000000 49.219635
v 53.999977 4.000000 50.000000
v 53.999977 10.000000 50.000000
v 53.923119 4.000000 50.780365
v 53.923119 10.000000 50.780365
v 53.695488 4.000000 51.530731
v 53.695488 10.000000 51.530731
v 53.325859 4.000000 52.222275
v 53.325859 10.000000 52.222275
v 52.828407 4.000000 52.828430
v 52.828407 10.000000 52.828430
v 52.222252 4.000000 53.325882
v 52.222252 10.000000 53.325882
v 51.530708 4.000000 53.695511
v 51.530708 10.000000 53.695511
v 50.780342 4.000000 53.923141
v 50.780342 10.000000 53.923141
v 49.999977 4.000000 54.000000
v 49.999977 10.000000 54.000000
v 49.219612 4.000000 53.923141
v 49.219612 10.000000 53.923141
v 48.469246 4.000000 53.695511
v 48.469246 10.000000 53.695511
v 47.777702 4.000000 53.325882
v 47.777702 10.000000 53.325882
v 47.171547 4.000000 52.828430
v 47.171547 10.000000 52.828430
v 46.674095 4.000000 52.222275
v 46.674095 10.000000 52.222275
v 46.304466 4.000000 51.530731
v 46.304466 10.000000 51.530731
v 46.076836 4.000000 50.780365
v 46.076836 10.000000 50.780365
v 45.999977 4.000000 50.000000
v 45.999977 10.000000 50.000000
v 46.076836 4.000000 49.219635
v 46.076836 10.000000 49.219635
v 46.304466 4.000000 48.469269
v 46.304466 10.000000 48.469269
v 46.674095 4.000000 47.777725
v 46.674095 10.000000 47.777725
v 47.171547 4.000000 47.171570
v 47.171547 10.000000 47.171570
v 47.777702 4.000000 46.674118
v 47.777702 10.000000 46.674118
v 48.469246 4.000000 46.304489
v 48.469246 10.000000 46.304489
v 49.219612 4.000000 46.076859
v 49.219612 10.000000 46.076859
v 53.826759 3.000000 40.761223
v 53.826759 1.000000 40.761223
v 51.950844 3.000000 40.192146
v 51.950844 1.000000 40.192146
v 49.999931 3.000000 40.000000
v 49.999931 1.000000 40.000000
v 55.555618 1.000000 41.685295
v 55.555618 3.000000 41.685295
v 57.071007 1.000000 42.928925
v 57.071007 3.000000 42.928925
v 58.314636 1.000000 44.444313
v 58.314636 3.000000 44.444313
v 59.238708 1.000000 46.173172
v 59.238708 3.000000 46.173172
v 59.807785 1.000000 48.049088
v 59.807785 3.000000 48.049088
v 59.999931 1.000000 50.000000
v 59.999931 3.000000 50.000000
v 59.807785 1.000000 51.950912
v 59.807785 3.000000 51.950912
v 59.238708 1.000000 53.826828
v 59.238708 3.000000 53.826828
v 58.314636 1.000000 55.555687
v 58.314636 3.000000 55.555687
v 57.071007 1.000000 57.071075
v 57.071007 3.000000 57.071075
v 55.555618 1.000000 58.314705
v 55.555618 3.000000 58.314705
v 53.826759 1.000000 59.238777
v 53.826759 3.000000 59.238777
v 51.950844 1.000000 59.807854
v 51.950844 3.000000 59.807854
v 49.999931 1.000000 60.000000
v 49.999931 3.000000 60.000000
v 48.049019 1.000000 59.807854
v 48.049019 3.000000 59.807854
v 46.173103 1.000000 59.238777
v 46.173103 3.000000 59.238777
v 44.444244 1.000000 58.314705
v 44.444244 3.000000 58.314705
v 42.928856 1.000000 57.071075
v 42.928856 3.000000 57.071075
v 41.685226 1.000000 55.555687
v 41.685226 3.000000 55.555687
v 40.761154 1.000000 53.826828
v 40.761154 3.000000 53.826828
v 40.192078 1.000000 51.950912
v 40.192078 3.000000 51.950912
v 39.999931 1.000000 50.000000
v 39.999931 3.000000 50.000000
v 40.192078 1.000000 48.049088
v 40.192078 3.000000 48.049088
v 40.761154 1.000000 46.173172
v 40.761154 3.000000 46.173172
v 41.685226 1.000000 44.444313
v 41.685226 3.000000 44.444313
v 42.928856 1.000000 42.928925
v 42.928856 3.000000 42.928925
v 44.444244 1.000000 41.685295
v 44.444244 3.000000 41.685295
v 46.173103 1.000000 40.761223
v 46.173103 3.000000 40.761223
v 48.049019 1.000000 40.192146
v 48.049019 3.000000 40.192146
v 49.000000 1.000000 40.000000
v 49.000000 3.000000 40.000000
v 49.000000 1.000000 0.000000
v 49.000000 3.000000 0.000000
v 51.000000 1.000000 40.000000
v 51.000000 3.000000 40.000000
v 51.000000 1.000000 0.000000
v 51.000000 3.000000 0.000000
v 49.000000 1.000000 100.000000
v 49.000000 3.000000 100.000000
v 49.000000 1.000000 60.000000
v 49.000000 3.000000 60.000000
v 51.000000 1.000000 100.000000
v 51.000000 3.000000 100.000000
v 51.000000 1.000000 60.000000
v 51.000000 3.000000 60.000000
v 100.000000 1.000000 51.000000
v 100.000000 3.000000 51.000000
v 60.000000 1.000000 51.000000
v 60.000000 3.000000 51.000000
v 100.000000 1.000000 49.000000
v 100.000000 3.000000 49.000000
v 60.000000 1.000000 49.000000
v 60.000000 3.000000 49.000000
v 40.000000 1.000000 51.000000
v 40.000000 3.000000 51.000000
v 0.000000 1.000000 51.000000
v 0.000000 3.000000 51.000000
v 40.000000 1.000000 49.000000
v 40.000000 3.000000 49.000000
v 0.000000 1.000000 49.000000
v 0.000000 3.000000 49.000000
vn -0.0000 1.0000 -0.0000
vn -0.0000 -0.0000 1.0000
vn -1.0000 -0.0000 -0.0000
vn -0.0000 -1.0000 -0.0000
vn 1.0000 -0.0000 -0.0000
vn -0.0000 -0.0000 -1.0000
vn -0.0980 -0.0000 0.9952
vn -0.2903 -0.0000 0.9569
vn -0.4714 -0.0000 0.8819
vn -0.6344 -0.0000 0.7730
vn -0.7730 -0.0000 0.6344
vn -0.8819 -0.0000 0.4714
vn -0.9569 -0.0000 0.2903
vn -0.9952 -0.0000 0.0980
vn -0.9952 -0.0000 -0.0980
vn -0.9569 -0.0000 -0.2903
vn -0.8819 -0.0000 -0.4714
vn -0.7730 -0.0000 -0.6344
vn -0.6344 -0.0000 -0.7730
vn -0.4714 -0.0000 -0.8819
vn -0.2903 -0.0000 -0.9569
vn -0.0980 -0.0000 -0.9952
vn 0.0980 -0.0000 -0.9952
vn 0.2903 -0.0000 -0.9569
vn 0.4714 -0.0000 -0.8819
vn 0.6344 -0.0000 -0.7730
vn 0.7730 -0.0000 -0.6344
vn 0.8819 -0.0000 -0.4714
vn 0.9569 -0.0000 -0.2903
vn 0.9952 -0.0000 -0.0980
vn 0.9952 -0.0000 0.0980
vn 0.9569 -0.0000 0.2903
vn 0.8819 -0.0000 0.4714
vn 0.7730 -0.0000 0.6344
vn 0.6344 -0.0000 0.7730
vn 0.4714 -0.0000 0.8819
vn 0.2903 -0.0000 0.9569
vn 0.0980 -0.0000 0.9952
vt 0.625000 0.500000
vt 0.875000 0.500000
vt 0.875000 0.750000
vt 0.625000 0.750000
vt 0.375000 0.750000
vt 0.625000 1.000000
vt 0.375000 1.000000
vt 0.375000 0.000000
vt 0.625000 0.000000
vt 0.625000 0.250000
vt 0.375000 0.250000
vt 0.125000 0.500000
vt 0.375000 0.500000
vt 0.125000 0.750000
vt 1.000000 0.500000
vt 0.968750 0.500000
vt 0.968750 1.000000
vt 1.000000 1.000000
vt 0.937500 0.500000
vt 0.937500 1.000000
vt 0.906250 0.500000
vt 0.906250 1.000000
vt 0.875000 1.000000
vt 0.843750 0.500000
vt 0.843750 1.000000
vt 0.812500 0.500000
vt 0.812500 1.000000
vt 0.781250 0.500000
vt 0.781250 1.000000
vt 0.750000 0.500000
vt 0.750000 1.000000
vt 0.718750 0.500000
vt 0.718750 1.000000
vt 0.687500 0.500000
vt 0.687500 1.000000
vt 0.656250 0.500000
vt 0.656250 1.000000
vt 0.593750 0.500000
vt 0.593750 1.000000
vt 0.562500 0.500000
vt 0.562500 1.000000
vt 0.531250 0.500000
vt 0.531250 1.000000
vt 0.500000 0.500000
vt 0.500000 1.000000
vt 0.468750 0.500000
vt 0.468750 1.000000
vt 0.437500 0.500000
vt 0.437500 1.000000
vt 0.406250 0.500000
vt 0.406250 1.000000
vt 0.343750 0.500000
vt 0.343750 1.000000
vt 0.312500 0.500000
vt 0.312500 1.000000
vt 0.281250 0.500000
vt 0.281250 1.000000
vt 0.250000 0.500000
vt 0.250000 1.000000
vt 0.218750 0.500000
vt 0.218750 1.000000
vt 0.187500 0.500000
vt 0.187500 1.000000
vt 0.156250 0.500000
vt 0.156250 1.000000
vt 0.125000 1.000000
vt 0.093750 0.500000
vt 0.093750 1.000000
vt 0.062500 0.500000
vt 0.062500 1.000000
vt 0.296822 0.485388
vt 0.341844 0.471731
vt 0.383337 0.449553
vt 0.419706 0.419706
vt 0.449553 0.383337
vt 0.471731 0.341844
vt 0.485388 0.296822
vt 0.490000 0.250000
vt 0.485388 0.203178
vt 0.471731 0.158156
vt 0.449553 0.116663
vt 0.419706 0.080294
vt 0.383337 0.050447
vt 0.341844 0.028269
vt 0.296822 0.014612
vt 0.250000 0.010000
vt 0.203178 0.014612
vt 0.158156 0.028269
vt 0.116663 0.050447
vt 0.080294 0.080294
vt 0.050447 0.116663
vt 0.028269 0.158156
vt 0.014612 0.203178
vt 0.010000 0.250000
vt 0.014612 0.296822
vt 0.028269 0.341844
vt 0.050447 0.383337
vt 0.080294 0.419706
vt 0.116663 0.449553
vt 0.158156 0.471731
vt 0.203178 0.485388
vt 0.250000 0.490000
vt 0.031250 0.500000
vt 0.031250 1.000000
vt 0.000000 0.500000
vt 0.000000 1.000000
vt 0.796822 0.485388
vt 0.750000 0.490000
vt 0.703178 0.485388
vt 0.658156 0.471731
vt 0.616663 0.449553
vt 0.580294 0.419706
vt 0.550447 0.383337
vt 0.528269 0.341844
vt 0.514612 0.296822
vt 0.510000 0.250000
vt 0.514612 0.203178
vt 0.528269 0.158156
vt 0.550447 0.116663
vt 0.580294 0.080294
vt 0.616663 0.050447
vt 0.658156 0.028269
vt 0.703178 0.014612
vt 0.750000 0.010000
vt 0.796822 0.014612
vt 0.841844 0.028269
vt 0.883337 0.050447
vt 0.919706 0.080294
vt 0.949553 0.116663
vt 0.971731 0.158156
vt 0.985388 0.203178
vt 0.990000 0.250000
vt 0.985388 0.296822
vt 0.971731 0.341844
vt 0.949553 0.383337
vt 0.919706 0.419706
vt 0.883337 0.449553
vt 0.841844 0.471731
s 0
usemtl Material
f 1/1/1 5/2/1 7/3/1 3/4/1
f 4/5/2 3/4/2 7/6/2 8/7/2
f 8/8/3 7/9/3 5/10/3 6/11/3
f 6/12/4 2/13/4 4/5/4 8/14/4
f 2/13/5 1/1/5 3/4/5 4/5/5
f 6/11/6 5/10/6 1/1/6 2/13/6
f 14/15/7 12/16/7 11/17/7 13/18/7
f 12/16/8 10/19/8 9/20/8 11/17/8
f 10/19/9 15/21/9 16/22/9 9/20/9
f 15/21/10 17/2/10 18/23/10 16/22/10
f 17/2/11 19/24/11 20/25/11 18/23/11
f 19/24/12 21/26/12 22/27/12 20/25/12
f 21/26/13 23/28/13 24/29/13 22/27/13
f 23/28/14 25/30/14 26/31/14 24/29/14
f 25/30/15 27/32/15 28/33/15 26/31/15
f 27/32/16 29/34/16 30/35/16 28/33/16
f 29/34/17 31/36/17 32/37/17 30/35/17
f 31/36/18 33/1/18 34/6/18 32/37/18
f 33/1/19 35/38/19 36/39/19 34/6/19
f 35/38/20 37/40/20 38/41/20 36/39/20
f 37/40/21 39/42/21 40/43/21 38/41/21
f 39/42/22 41/44/22 42/45/22 40/43/22
f 41/44/23 43/46/23 44/47/23 42/45/23
f 43/46/24 45/48/24 46/49/24 44/47/24
f 45/48/25 47/50/25 48/51/25 46/49/25
f 47/50/26 49/13/26 50/7/26 48/51/26
f 49/13/27 51/52/27 52/53/27 50/7/27
f 51/52/28 53/54/28 54/55/28 52/53/28
f 53/54/29 55/56/29 56/57/29 54/55/29
f 55/56/30 57/58/30 58/59/30 56/57/30
f 57/58/31 59/60/31 60/61/31 58/59/31
f 59/60/32 61/62/32 62/63/32 60/61/32
f 61/62/33 63/64/33 64/65/33 62/63/33
f 63/64/34 65/12/34 66/66/34 64/65/34
f 65/12/35 67/67/35 68/68/35 66/66/35
f 67/67/36 69/69/36 70/70/36 68/68/36
f 11/71/4 9/72/4 16/73/4 18/74/4 20/75/4 22/76/4 24/77/4 26/78/4 28/79/4 30/80/4 32/81/4 34/82/4 36/83/4 38/84/4 40/85/4 42/86/4 44/87/4 46/88/4 48/89/4 50/90/4 52/91/4 54/92/4 56/93/4 58/94/4 60/95/4 62/96/4 64/97/4 66/98/4 68/99/4 70/100/4 72/101/4 13/102/4
f 69/69/37 71/103/37 72/104/37 70/70/37
f 71/103/38 14/105/38 13/106/38 72/104/38
f 12/107/1 14/108/1 71/109/1 69/110/1 67/111/1 65/112/1 63/113/1 61/114/1 59/115/1 57/116/1 55/117/1 53/118/1 51/119/1 49/120/1 47/121/1 45/122/1 43/123/1 41/124/1 39/125/1 37/126/1 35/127/1 33/128/1 31/129/1 29/130/1 27/131/1 25/132/1 23/133/1 21/134/1 19/135/1 17/136/1 15/137/1 10/138/1
f 78/15/23 77/18/23 75/17/23 76/16/23
f 76/16/24 75/17/24 73/20/24 74/19/24
f 74/19/25 73/20/25 80/22/25 79/21/25
f 79/21/26 80/22/26 82/23/26 81/2/26
f 81/2/27 82/23/27 84/25/27 83/24/27
f 83/24/28 84/25/28 86/27/28 85/26/28
f 85/26/29 86/27/29 88/29/29 87/28/29
f 87/28/30 88/29/30 90/31/30 89/30/30
f 89/30/31 90/31/31 92/33/31 91/32/31
f 91/32/32 92/33/32 94/35/32 93/34/32
f 93/34/33 94/35/33 96/37/33 95/36/33
f 95/36/34 96/37/34 98/6/34 97/1/34
f 97/1/35 98/6/35 100/39/35 99/38/35
f 99/38/36 100/39/36 102/41/36 101/40/36
f 101/40/37 102/41/37 104/43/37 103/42/37
f 103/42/38 104/43/38 106/45/38 105/44/38
f 105/44/7 106/45/7 108/47/7 107/46/7
f 107/46/8 108/47/8 110/49/8 109/48/8
f 109/48/9 110/49/9 112/51/9 111/50/9
f 111/50/10 112/51/10 114/7/10 113/13/10
f 113/13/11 114/7/11 116/53/11 115/52/11
f 115/52/12 116/53/12 118/55/12 117/54/12
f 117/54/13 118/55/13 120/57/13 119/56/13
f 119/56/14 120/57/14 122/59/14 121/58/14
f 121/58/15 122/59/15 124/61/15 123/60/15
f 123/60/16 124/61/16 126/63/16 125/62/16
f 125/62/17 126/63/17 128/65/17 127/64/17
f 127/64/18 128/65/18 130/66/18 129/12/18
f 129/12/19 130/66/19 132/68/19 131/67/19
f 131/67/20 132/68/20 134/70/20 133/69/20
f 75/71/1 77/102/1 136/101/1 134/100/1 132/99/1 130/98/1 128/97/1 126/96/1 124/95/1 122/94/1 120/93/1 118/92/1 116/91/1 114/90/1 112/89/1 110/88/1 108/87/1 106/86/1 104/85/1 102/84/1 100/83/1 98/82/1 96/81/1 94/80/1 92/79/1 90/78/1 88/77/1 86/76/1 84/75/1 82/74/1 80/73/1 73/72/1
f 133/69/21 134/70/21 136/104/21 135/103/21
f 135/103/22 136/104/22 77/106/22 78/105/22
f 76/107/4 74/138/4 79/137/4 81/136/4 83/135/4 85/134/4 87/133/4 89/132/4 91/131/4 93/130/4 95/129/4 97/128/4 99/127/4 101/126/4 103/125/4 105/124/4 107/123/4 109/122/4 111/121/4 113/120/4 115/119/4 117/118/4 119/117/4 121/116/4 123/115/4 125/114/4 127/113/4 129/112/4 131/111/4 133/110/4 135/109/4 78/108/4
f 137/8/3 138/9/3 140/10/3 139/11/3
f 139/11/6 140/10/6 144/1/6 143/13/6
f 143/13/5 144/1/5 142/4/5 141/5/5
f 141/5/2 142/4/2 138/6/2 137/7/2
f 139/12/4 143/13/4 141/5/4 137/14/4
f 144/1/1 140/2/1 138/3/1 142/4/1
f 145/8/5 147/11/5 148/10/5 146/9/5
f 147/11/2 151/13/2 152/1/2 148/10/2
f 151/13/3 149/5/3 150/4/3 152/1/3
f 149/5/6 145/7/6 146/6/6 150/4/6
f 147/12/1 145/14/1 149/5/1 151/13/1
f 152/1/4 150/4/4 146/3/4 148/2/4
f 153/8/6 155/11/6 156/10/6 154/9/6
f 155/11/5 159/13/5 160/1/5 156/10/5
f 159/13/2 157/5/2 158/4/2 160/1/2
f 157/5/3 153/7/3 154/6/3 158/4/3
f 155/12/1 153/14/1 157/5/1 159/13/1
f 160/1/4 158/4/4 154/3/4 156/2/4
f 161/8/2 162/9/2 164/10/2 163/11/2
f 163/11/3 164/10/3 168/1/3 167/13/3
f 167/13/6 168/1/6 166/4/6 165/5/6
f 165/5/5 166/4/5 162/6/5 161/7/5
f 163/12/4 167/13/4 165/5/4 161/14/4
f 168/1/1 164/2/1 162/3/1 166/4/1
